<svg xmlns="http://www.w3.org/2000/svg" viewBox="0 0 727.33 216.5"><defs><style>.cls-1{fill:#122d4c;}</style></defs><g id="Layer_2" data-name="Layer 2"><g id="Capa_1" data-name="Capa 1"><path class="cls-1" d="M251.94,0h26.6L263.12,23.22H244Z"/><path class="cls-1" d="M67.26,77.47v24.77H4.92v-80h27.4V77.47Z"/><path class="cls-1" d="M143.38,78.78v23.46h-64V4.07h64V27.45H106.31V41.9h22.13V64.08H106.31v14.7Z"/><path class="cls-1" d="M232.51,28.42H205.84v73.82H178.68V28.42H152V4.07h80.5Z"/><path class="cls-1" d="M274,68.86h27.25c0,6.85,5.29,10.18,11.31,10.18,5.53,0,10.82-2.94,10.82-8.18,0-6-7.47-7.76-16.6-10-13.85-3.44-31.55-7.69-31.55-29.52,0-18.88,13.88-29.7,36.49-29.7,23,0,36.17,11.8,36.17,31.31h-26.5c0-6.06-4.52-8.91-10-8.91-4.71,0-9.23,2-9.23,6.52,0,5.44,7.23,7.24,16.26,9.51C332.52,43.74,351,48.46,351,70.35c0,21-16.09,31.81-38.35,31.81C289.15,102.16,274,89.76,274,68.86Z"/><path class="cls-1" d="M727.33,140.2H667.88V214H640.72V140.2H614.05V115.85H727.33Z"/><path class="cls-1" d="M498.71,190.56V214h-64V115.85h64v23.38H461.63v14.45h19.22v22.18H461.63v14.7Z"/><path class="cls-1" d="M166.75,216.5c-31.55,0-54.08-21.56-54.08-51.57s22.53-51.56,54.08-51.56,53.92,21.48,53.92,51.56-22.44,51.57-53.92,51.57Zm25.76-51.57c0-15.36-10.82-26.39-25.76-26.39s-25.92,11.11-25.92,26.39,11,26.4,25.92,26.4S192.51,180.3,192.51,164.93Z"/><path class="cls-1" d="M319,115.85V214H296.6l-39-53.27V214H231.4V115.85h23.67l37.69,51.5v-51.5Z"/><path class="cls-1" d="M420.62,86.71V214H398.26l-39-53.27V214H333.05V115.85h23.67l37.7,51.5V86.71Z"/><path class="cls-1" d="M559.89,216.5C530,216.5,507.7,194.38,507.7,165s22.32-51.64,52.19-51.64c25.73,0,45.66,17,49.65,41.87h-27.4c-3.37-10.07-11.85-16.61-22.19-16.61-13.9,0-24.09,11.18-24.09,26.38s10.19,26.16,24.09,26.16c10.9,0,19.46-7.1,22.21-18h27.66C606.09,199,586,216.5,559.89,216.5Z"/><path class="cls-1" d="M52.19,216.5C22.32,216.5,0,194.38,0,165s22.32-51.64,52.19-51.64c25.73,0,45.66,17,49.65,41.87H74.44c-3.37-10.07-11.85-16.61-22.19-16.61-13.9,0-24.09,11.18-24.09,26.38s10.19,26.16,24.09,26.16c10.9,0,19.46-7.1,22.21-18h27.66C98.39,199,78.34,216.5,52.19,216.5Z"/></g></g></svg>